#!OML:ASF H:\MichaelJackson\Top Level 1\Subject 1\Session 1\male.ASF
:FULLY-SPECIFIED
:DEGREES
144
root -12.4646 17.0498 -34.4771 11.2506 1.6149 -0.555641
lowerback -13.5099 3.00588 3.1336
upperback 1.95429 3.60495 -1.25105
thorax 10.0018 1.94726 -2.32408
lowerneck -10.9507 8.05814 4.85934
upperneck 0.837 10.3592 -5.58826
head 2.79423 5.00824 -2.03409
rclavicle 2.51587e-014 -9.54166e-015
rhumerus -33.3703 6.20585 -97.6855
rradius 34.8079
rwrist 10.2804
rhand -26.354 -20.6369
rfingers 7.12502
rthumb 0.203805 -50.6166
lclavicle 2.51587e-014 -9.54166e-015
lhumerus -33.3112 -16.9661 96.1785
lradius 40.409
lwrist 4.32793
lhand -2.51849 13.188
lfingers 7.12502
lthumb 23.176 41.8137
rfemur -20.6859 6.30801 20.5463
rtibia 33.1027
rfoot -24.6375 -29.1236
rtoes -3.43858
lfemur -25.9079 4.93947 -20.6634
ltibia 35.1139
lfoot -31.6992 -9.4365
ltoes 54.9569
145
root -12.4679 17.0496 -34.4796 11.3055 1.64729 -0.581487
lowerback -13.5516 3.04047 3.26955
upperback 1.95068 3.62774 -1.26035
thorax 10.0339 1.96642 -2.40379
lowerneck -10.8092 8.50521 4.95044
upperneck 0.881441 10.9579 -5.6914
head 2.82963 5.30488 -2.04289
rclavicle -7.37988e-015 1.21259e-014
rhumerus -33.4502 6.15603 -97.6982
rradius 34.8749
rwrist 10.3632
rhand -26.4048 -20.5934
rfingers 7.12502
rthumb 0.154774 -50.5731
lclavicle -7.37988e-015 1.21259e-014
lhumerus -33.1145 -16.9226 96.1478
lradius 40.2085
lwrist 4.21279
lhand -2.43716 13.518
lfingers 7.12502
lthumb 23.254 42.1339
rfemur -20.7452 6.72837 20.5541
rtibia 33.099
rfoot -24.4458 -29.5533
rtoes -3.57017
lfemur -25.9934 4.94743 -20.6235
ltibia 35.1083
lfoot -31.6093 -9.49881
ltoes 55.1274
146
root -12.4698 17.0493 -34.4778 11.2973 1.67424 -0.542008
lowerback -13.5942 3.06956 3.3675
upperback 1.97352 3.65153 -1.28982
thorax 10.0948 1.98536 -2.48301
lowerneck -10.555 8.96398 4.95831
upperneck 0.78388 11.5795 -5.74156
head 2.78735 5.61742 -2.02502
rclavicle -3.38307e-014 -4.67144e-015
rhumerus -33.4586 6.02836 -97.6976
rradius 34.8628
rwrist 10.4614
rhand -26.3525 -20.4641
rfingers 7.12502
rthumb 0.205271 -50.4437
lclavicle -3.38307e-014 -4.67144e-015
lhumerus -32.9034 -16.913 96.104
lradius 39.9958
lwrist 4.17461
lhand -2.35525 13.497
lfingers 7.12502
lthumb 23.3326 42.1029
rfemur -20.7271 6.61782 20.5299
rtibia 33.1001
rfoot -24.3858 -29.4994
rtoes -3.72525
lfemur -25.97 4.96329 -20.6565
ltibia 35.1004
lfoot -31.531 -9.56144
ltoes 55.1657
147
root -12.4715 17.05 -34.4788 11.3242 1.70753 -0.521406
lowerback -13.5999 3.09279 3.4858
upperback 1.97254 3.66505 -1.31833
thorax 10.1086 1.99982 -2.57718
lowerneck -10.3808 9.3746 4.98849
upperneck 0.775076 12.1337 -5.78268
head 2.78795 5.8948 -2.00864
rclavicle 3.81418e-015 7.85199e-015
rhumerus -33.4617 6.03519 -97.711
rradius 34.8741
rwrist 10.4277
rhand -26.3218 -20.5636
rfingers 7.12502
rthumb 0.234903 -50.5432
lclavicle 3.81418e-015 7.85199e-015
lhumerus -32.8879 -16.8346 96.0466
lradius 39.9707
lwrist 4.07777
lhand -2.2306 13.6822
lfingers 7.12502
lthumb 23.4522 42.273
rfemur -20.7472 6.88856 20.4904
rtibia 33.1029
rfoot -24.243 -29.758
rtoes -3.87402
lfemur -26.0083 4.96578 -20.677
ltibia 35.0902
lfoot -31.4665 -9.60652
ltoes 55.2813
148
root -12.4735 17.0499 -34.4802 11.3485 1.73264 -0.49483
lowerback -13.5969 3.12158 3.58434
upperback 1.96864 3.68942 -1.34429
thorax 10.1134 2.01813 -2.65542
lowerneck -10.2579 9.70706 5.1096
upperneck 0.770486 12.575 -5.90701
head 2.80803 6.11307 -2.04088
rclavicle 2.58296e-014 1.39149e-015
rhumerus -33.3985 6.11889 -97.7249
rradius 34.7929
rwrist 10.3065
rhand -26.2726 -20.6383
rfingers 7.12502
rthumb 0.282468 -50.6179
lclavicle 2.58296e-014 1.39149e-015
lhumerus -32.9058 -16.763 95.9986
lradius 40.0032
lwrist 3.98179
lhand -2.12415 13.8965
lfingers 7.12502
lthumb 23.5543 42.4741
rfemur -20.7896 6.74665 20.4777
rtibia 33.1098
rfoot -24.1232 -29.6802
rtoes -4.20642
lfemur -26.0487 5.0208 -20.7092
ltibia 35.077
lfoot -31.3899 -9.70238
ltoes 55.3545
149
root -12.4752 17.0505 -34.4828 11.4149 1.75155 -0.459576
lowerback -13.6432 3.14548 3.67447
upperback 1.95765 3.70762 -1.37702
thorax 10.1386 2.03325 -2.73573
lowerneck -10.1967 10.038 5.10089
upperneck 0.891837 13.0237 -5.85989
head 2.85849 6.3372 -1.98911
rclavicle -1.85118e-014 7.95139e-015
rhumerus -33.3163 6.31679 -97.7604
rradius 34.705
rwrist 10.1231
rhand -26.2438 -20.6541
rfingers 7.12502
rthumb 0.310244 -50.6336
lclavicle -1.85118e-014 7.95139e-015
lhumerus -32.81 -16.6745 95.9284
lradius 39.9426
lwrist 3.86566
lhand -2.05483 13.9274
lfingers 7.12502
lthumb 23.6208 42.4964
rfemur -20.8689 6.87588 20.4224
rtibia 33.1125
rfoot -24.012 -29.8209
rtoes -4.20291
lfemur -26.1303 5.04427 -20.755
ltibia 35.067
lfoot -31.3327 -9.75282
ltoes 55.4177
